<svg id="Layer_1" xmlns="http://www.w3.org/2000/svg" viewBox="0 0 391.5 483"><style>.st0{fill:#1f2028}.st1{opacity:.4}.st2{fill:#fff}.st3{fill:#3faad0}.st4{fill:#eb5424}.st5{fill:#2c2c2c}.st6,.st7{fill:none;stroke:gray;stroke-width:2;stroke-linecap:round;stroke-linejoin:round}.st7{stroke:#2c2c2c}.st8{fill:#e3e5e7}.st9{stroke:#fff;stroke-width:2;stroke-linecap:round;stroke-linejoin:round}.st10,.st9{fill:none}.st11{fill:#ff631c}.st12,.st13{stroke-width:2;stroke-linecap:round}.st12{stroke-linejoin:round;fill:#e3e5e7;stroke:#2c2c2c}.st13{fill:none;stroke:#fff;stroke-miterlimit:10}</style><title>Ambassador-spaceman-stand-up_Ambassador -v2 copy</title><path class="st0" d="M390.4 315.6c0 43.2-16.4 82.6-43.3 112.2-9.9 3.2-19.7 6.6-29.3 13.5-7.8 5.6-15.2 14.4-21.7 24.7-21.9 10.6-46.6 16.5-72.6 16.5-92.2 0-166.9-74.7-166.9-166.9s74.7-166.9 166.9-166.9 166.9 74.7 166.9 166.9z"/><g id="Ambassador-Page"><g id="Desktop---Black"><g id="Jumbo"><g id="_x2D_Ambassador-spaceman-stand-up_x5F_Ambassador--v2-copy"><g id="Layer_3" class="st1"><g id="Group"><path id="Shape" class="st2" d="M224 483c-92.4 0-167.5-75.1-167.5-167.5S131.6 148 224 148s167.5 75.1 167.5 167.5c0 41.3-15.2 81-42.7 111.7-.1.1-.3.3-.5.3-15.9 4-37.5 16.2-50.4 38.1-.1.2-.2.3-.4.4-23 11.3-47.7 17-73.5 17zm0-333c-91.3 0-165.5 74.2-165.5 165.5S132.7 481 224 481c25.4 0 49.7-5.6 72.4-16.6 13.2-22.2 35-34.5 51.2-38.7 27.1-30.3 42-69.4 42-110.2C389.5 224.2 315.3 150 224 150z"/><path id="Shape_1_" class="st2" d="M173.5 300h-16c-.6 0-1-.4-1-1s.4-1 1-1h16c.6 0 1 .4 1 1s-.4 1-1 1z"/><path id="Shape_2_" class="st2" d="M326.5 373h-16c-.6 0-1-.4-1-1s.4-1 1-1h16c.6 0 1 .4 1 1s-.4 1-1 1z"/><path id="Shape_3_" class="st2" d="M144.5 300h-42c-.6 0-1-.4-1-1s.4-1 1-1h42c.6 0 1 .4 1 1s-.4 1-1 1z"/><path id="Shape_4_" class="st2" d="M282.5 339h-96c-.6 0-1-.4-1-1s.4-1 1-1h96c.6 0 1 .4 1 1s-.4 1-1 1z"/><path id="Shape_5_" class="st3" d="M187.5 244h-41c-.6 0-1-.4-1-1s.4-1 1-1h41c.6 0 1 .4 1 1s-.4 1-1 1z"/><path id="Shape_6_" class="st4" d="M358.5 285h-113c-.6 0-1-.4-1-1s.4-1 1-1h113c.6 0 1 .4 1 1s-.4 1-1 1z"/><path id="Shape_7_" class="st3" d="M230.5 455h-48c-.6 0-1-.4-1-1s.4-1 1-1h48c.6 0 1 .4 1 1s-.4 1-1 1z"/><path id="Shape_8_" class="st4" d="M157.5 410h-34c-.6 0-1-.4-1-1s.4-1 1-1h34c.6 0 1 .4 1 1s-.4 1-1 1z"/><g id="Shape_9_"><path class="st2" d="M137.8 388.1c-.8 0-1.6 0-2.4-.1-6.6-.6-12.7-3.8-16.9-8.9-4.3-5.1-6.3-11.6-5.6-18.3.6-6.6 3.8-12.7 8.9-16.9 5.1-4.3 11.6-6.3 18.3-5.6 13.7 1.3 23.8 13.5 22.6 27.2l-1-.1 1 .1c-.6 6.6-3.8 12.7-8.9 16.9-4.7 3.7-10.2 5.7-16 5.7zm-.1-48c-5.3 0-10.5 1.8-14.6 5.3-4.7 3.9-7.7 9.4-8.2 15.6-.6 6.1 1.3 12.1 5.2 16.8 3.9 4.7 9.4 7.7 15.6 8.2 6.1.6 12.1-1.3 16.8-5.2 4.7-3.9 7.7-9.4 8.2-15.6 1.2-12.6-8.1-23.9-20.8-25-.8-.1-1.5-.1-2.2-.1z"/><path class="st4" d="M119.7 362.4c-.6-.1-1-.5-1-1.1 1-10.6 10.4-18.4 21-17.4.5.1 1 .5.9 1.1-.1.5-.5.9-1.1.9-9.5-.9-17.9 6.1-18.8 15.6 0 .5-.5.9-1 .9z"/></g><path id="Shape_10_" class="st2" d="M303.5 261.9c-2.2 0-4.3-.6-6.3-1.7-5.8-3.5-7.7-11.1-4.2-16.9s11.1-7.7 16.9-4.2c2.8 1.7 4.8 4.4 5.6 7.6.8 3.2.3 6.5-1.4 9.3-2.3 3.8-6.4 5.9-10.6 5.9zm.1-22.6c-3.5 0-6.9 1.8-8.8 5-2.9 4.9-1.3 11.2 3.5 14.1 4.9 2.9 11.2 1.3 14.1-3.5 1.4-2.4 1.8-5.1 1.2-7.8-.7-2.7-2.3-4.9-4.7-6.3-1.7-1-3.5-1.5-5.3-1.5z"/><g id="Shape_11_"><path class="st2" d="M296.9 465.3c-.3 0-.7-.2-.9-.5-3-5.1-4.6-10.9-4.6-16.8 0-18.2 14.8-33 33-33 8.8 0 17.1 3.4 23.3 9.7.4.4.4 1 0 1.4s-1 .4-1.4 0c-5.9-5.9-13.6-9.1-21.9-9.1-17.1 0-31 13.9-31 31 0 5.6 1.5 11 4.3 15.8.3.5.1 1.1-.4 1.4 0 0-.2.1-.4.1z"/><path class="st4" d="M302.7 438.5c-.1 0-.3 0-.4-.1-.5-.2-.7-.8-.5-1.3 3.3-6.9 9.4-11.9 16.8-13.8 4-1 8-1.1 11.9-.2.5.1.9.7.8 1.2-.1.5-.7.9-1.2.8-3.6-.8-7.3-.8-11 .1-6.8 1.7-12.4 6.4-15.5 12.7-.2.4-.6.6-.9.6z"/></g></g><path id="Shape_12_" class="st2" d="M98.5 224.8c-.2 0-.4-.1-.6-.2-.4-.3-.6-.9-.2-1.4 3.1-4.3 6.5-8.5 10-12.5.4-.4 1-.5 1.4-.1s.5 1 .1 1.4c-3.5 3.9-6.8 8.1-9.9 12.4-.2.2-.5.4-.8.4z"/><path id="Shape_13_" class="st2" d="M71.3 338.9c-.5 0-.9-.4-1-.8-1.2-7.9-1.9-16-1.9-24.1 0-18.4 3.2-36.3 9.4-53.4.2-.5.8-.8 1.3-.6s.8.8.6 1.3c-6.1 16.9-9.3 34.6-9.3 52.7 0 8 .6 16 1.8 23.8.1.5-.3 1.1-.9 1.1.1 0 .1 0 0 0z"/></g><g id="Layer_1_1_"><g id="Group_3_"><path id="Shape_37_" class="st2" d="M37.1 401.4c-.4 0-.8-.3-.9-.7l-14.5-42.6c-.1-.4 0-.9.4-1.2l36-23.9c.5-.3 1.1-.2 1.4.3.3.5.2 1.1-.3 1.4l-35.3 23.4 14 41.1 40.7-2.4c.6 0 1 .4 1.1.9s-.4 1-.9 1.1l-41.7 2.6z"/><path id="Shape_38_" class="st2" d="M36.5 400.3c-.1 0-.3 0-.4-.1-.3-.1-.5-.3-.6-.6l-13.9-42c-.1-.3-.1-.6.1-.8.2-.3.4-.4.7-.5l26.9-4.3c.5-.1 1 .2 1.1.7l11 34c.2.5-.1 1-.5 1.2l-24 12.3c-.1.1-.3.1-.4.1zm-12.6-42.2L37 397.9l22.2-11.4-10.5-32.4-24.8 4z"/><path id="Shape_39_" class="st2" d="M30.5 379c-.2 0-.4-.1-.6-.2-.4-.3-.5-1-.2-1.4l18-24c.3-.4 1-.5 1.4-.2s.5 1 .2 1.4l-18 24c-.2.3-.5.4-.8.4z"/><path id="Shape_40_" class="st2" d="M60.5 388h-.3l-30-9c-.5-.2-.8-.7-.7-1.2.2-.5.7-.8 1.2-.7l30 9c.5.2.8.7.7 1.2-.1.4-.5.7-.9.7z"/><path id="Rectangle-path" class="st2" d="M55.66 329.106l4.068-.504 1.722 13.894-4.07.504z"/><path id="Shape_41_" class="st2" d="M57.4 343.9c-.5 0-.9-.4-1-.9l-1.7-13.9c0-.3 0-.5.2-.7s.4-.3.7-.4l4.1-.5c.5-.1 1 .3 1.1.9l1.7 13.9c0 .3 0 .5-.2.7s-.4.3-.7.4l-4.2.5zm-.6-14l1.5 11.9 2.1-.3-1.5-11.9-2.1.3z"/><path id="Rectangle-path_1_" class="st2" d="M73.295 390.765l3.55-2.05 7 12.124-3.55 2.05z"/><path id="Shape_42_" class="st2" d="M80.3 403.8H80c-.3-.1-.5-.2-.6-.5l-7-12.1c-.3-.5-.1-1.1.4-1.4l3.5-2c.2-.1.5-.2.8-.1s.5.2.6.5l7 12.1c.3.5.1 1.1-.4 1.4l-3.5 2c-.2.1-.4.1-.5.1zm-5.7-12.7l6 10.4 1.8-1-6-10.4-1.8 1z"/><path id="Shape_43_" class="st2" d="M6.7 381c-.5 0-1-.4-1-1-.5-10.5 6.1-20.1 16-23.4.5-.2 1.1.1 1.3.6s-.1 1.1-.6 1.3c-9.1 3-15.1 11.8-14.7 21.4 0 .6-.4 1.1-1 1.1z"/><path id="Shape_44_" class="st2" d="M29.2 402.4c-7.7 0-15.1-3.8-19.5-10.4-.3-.5-.2-1.1.3-1.4.5-.3 1.1-.2 1.4.3 5.4 8 15.5 11.4 24.6 8.4.5-.2 1.1.1 1.3.6s-.1 1.1-.6 1.3c-2.6.8-5.1 1.2-7.5 1.2z"/><path id="Shape_45_" class="st2" d="M4.5 393.7c-.4 0-.8-.3-.9-.7L.1 382.6c-.1-.3-.1-.5 0-.8.1-.2.3-.4.6-.5l26.9-9.2c.3-.1.5-.1.8 0 .2.1.4.3.5.6l3.5 10.4c.1.3.1.5-.1.8-.1.2-.3.4-.6.5l-26.9 9.2c-.1.1-.2.1-.3.1zM2.2 383l2.9 8.5 25.1-8.5-2.9-8.5L2.2 383z"/><path id="Rectangle-path_2_" class="st2" d="M17.877 373.194L26.4 370.3l5.5 16.19-8.523 2.896z"/><path id="Shape_46_" class="st2" d="M23.4 390.4c-.4 0-.8-.3-.9-.7L17 373.5c-.1-.3-.1-.5.1-.8.1-.2.3-.4.6-.5l8.5-2.9c.5-.2 1.1.1 1.3.6l5.5 16.2c.1.3.1.5-.1.8-.1.2-.3.4-.6.5l-8.5 2.9c-.2.1-.3.1-.4.1zm-4.2-16.6l4.9 14.3 6.6-2.3-4.9-14.3-6.6 2.3z"/><path id="Shape_47_" class="st2" d="M42.1 355.1c-.4 0-.8-.3-1-.7l-2.4-7.5c-.2-.5.1-1.1.6-1.3.5-.2 1.1.1 1.3.6l2.4 7.5c.2.5-.1 1.1-.6 1.3-.1.1-.2.1-.3.1z"/><path id="Rectangle-path_3_" class="st5" d="M29.65 374.923l41.1-13.306 2.188 6.755-41.1 13.306z"/><g id="Shape_48_"><path class="st2" d="M31.2 382.4c-.4 0-.8-.3-1-.7-.2-.5.1-1.1.6-1.3l43.8-14.2c.5-.2 1.1.1 1.3.6s-.1 1.1-.6 1.3l-43.8 14.3h-.3zm-2.2-6.6c-.4 0-.8-.3-1-.7-.2-.5.1-1.1.6-1.3l43.8-14.2c.5-.2 1.1.1 1.3.6s-.1 1.1-.6 1.3l-43.8 14.2c-.1 0-.2.1-.3.1z"/><path class="st2" d="M72.1 369.2c-.4 0-.8-.3-1-.7l-2.2-6.7c-.2-.5.1-1.1.6-1.3s1.1.1 1.3.6l2.2 6.7c.2.5-.1 1.1-.6 1.3-.1.1-.2.1-.3.1zm-3.8 1.2c-.4 0-.8-.3-1-.7l-2.2-6.7c-.2-.5.1-1.1.6-1.3.5-.2 1.1.1 1.3.6l2.2 6.7c.2.5-.1 1.1-.6 1.3-.1.1-.2.1-.3.1zm-3.8 1.2c-.4 0-.8-.3-1-.7l-2.2-6.7c-.2-.5.1-1.1.6-1.3.5-.2 1.1.1 1.3.6l2.2 6.7c.2.5-.1 1.1-.6 1.3-.1.1-.2.1-.3.1zm-3.8 1.3c-.4 0-.8-.3-1-.7l-2.2-6.7c-.2-.5.1-1.1.6-1.3.5-.2 1.1.1 1.3.6l2.2 6.7c.2.5-.1 1.1-.6 1.3-.1.1-.2.1-.3.1zm-3.8 1.2c-.4 0-.8-.3-1-.7l-2.2-6.7c-.2-.5.1-1.1.6-1.3.5-.2 1.1.1 1.3.6l2.2 6.7c.2.5-.1 1.1-.6 1.3-.1.1-.2.1-.3.1zm-3.8 1.2c-.4 0-.8-.3-1-.7l-2.2-6.7c-.2-.5.1-1.1.6-1.3.5-.2 1.1.1 1.3.6l2.2 6.7c.2.5-.1 1.1-.6 1.3-.1.1-.2.1-.3.1zm-3.8 1.3c-.4 0-.8-.3-1-.7l-2.2-6.7c-.2-.5.1-1.1.6-1.3.5-.2 1.1.1 1.3.6l2.2 6.7c.2.5-.1 1.1-.6 1.3-.1 0-.2.1-.3.1zm-3.8 1.2c-.4 0-.8-.3-1-.7l-2.2-6.7c-.2-.5.1-1.1.6-1.3.5-.2 1.1.1 1.3.6l2.2 6.7c.2.5-.1 1.1-.6 1.3-.1.1-.2.1-.3.1zm-3.8 1.2c-.4 0-.8-.3-1-.7l-2.2-6.7c-.2-.5.1-1.1.6-1.3.5-.2 1.1.1 1.3.6l2.2 6.7c.2.5-.1 1.1-.6 1.3-.1.1-.2.1-.3.1zm-3.8 1.3c-.4 0-.8-.3-1-.7l-2.2-6.7c-.2-.5.1-1.1.6-1.3.5-.2 1.1.1 1.3.6l2.2 6.7c.2.5-.1 1.1-.6 1.3-.1 0-.2.1-.3.1zm-3.9 1.2c-.4 0-.8-.3-1-.7l-2.2-6.7c-.2-.5.1-1.1.6-1.3.5-.2 1.1.1 1.3.6l2.2 6.7c.2.5-.1 1.1-.6 1.3 0 .1-.1.1-.3.1z"/></g><path id="Shape_49_" class="st2" d="M21.5 401c-.4 0-.8-.3-.9-.7l-3.9-11.8c-.2-.5.1-1.1.6-1.3s1.1.1 1.3.6l3.9 11.8c.2.5-.1 1.1-.6 1.3-.2.1-.3.1-.4.1z"/><path id="Shape_50_" class="st2" d="M14.1 378.8c-.4 0-.8-.3-.9-.7l-3.6-10.8c-.2-.5.1-1.1.6-1.3.5-.2 1.1.1 1.3.6l3.6 10.8c.2.5-.1 1.1-.6 1.3-.2.1-.3.1-.4.1z"/><path id="Shape_51_" class="st2" d="M56.5 400c-.4 0-.8-.3-1-.7l-2.7-8.6c-.2-.5.1-1.1.6-1.3s1.1.1 1.3.6l2.7 8.6c.2.5-.1 1.1-.6 1.3-.1.1-.2.1-.3.1z"/></g><g id="astronaut"><path id="Fill-23" class="st2" d="M274.8 100.8c-6-7.6-12.8-12-18.1-15.1-9.4-5.5-50.8-12-69 1 0 0-8.4 7.8-14.1 16.3s-9.8 10.8-23 14.5l.8 15.5s18.1.3 29.5-14.5c6.1-8 11.5-10.2 11.5-10.2s-2.4 9.7-2.5 25.2c0 7.3 2.8 18.3 3.3 27.8.6 10.7-1.1 19.7-1.1 19.7h25.3v-29.2c2.5.6 5.1 1 7.7 1s5-.3 7.4-.9V181h25.3s-4.4-16.7.3-30.8c1.2-1.2 3-3.4 5.2-5.2 4.2-3.6 8.6-7.2 11.9-11.3 7.2-9.2 7-23.6-.4-32.9m-18 6.2c1.4 1.3 2.8 2.8 4.3 4.6 2.4 3 4.1 8 1.7 11.6-.9 1.4-1.7 2.5-3.5 4.1 0-9.4-2.5-20.3-2.5-20.3"/><path id="Stroke-5" class="st6" d="M184.5 181h29"/><path id="Stroke-7" class="st6" d="M178.5 187h20"/><path id="Stroke-11" class="st6" d="M208.5 202h18"/><path id="Stroke-13" class="st6" d="M247.5 184h29"/><path id="Stroke-15" class="st6" d="M234.5 196h34"/><path id="Stroke-17" class="st6" d="M220.5 174h29"/><path id="Stroke-19" class="st6" d="M217.5 184h14"/><path id="Stroke-21" class="st6" d="M192.5 196h22"/><path id="Stroke-25" class="st7" d="M256.8 107c1.4 1.3 2.8 2.8 4.3 4.6 2.4 3 4.1 8 1.7 11.6-.9 1.4-1.7 2.5-3.5 4.1 0-9.4-2.5-20.3-2.5-20.3zm-64.3 1.3s-2.4 9.7-2.5 25.2c0 7.3 2.8 18.3 3.3 27.8.6 10.7-1.1 19.7-1.1 19.7h25.3v-29.2c2.5.6 5.1 1 7.7 1s5-.3 7.4-.9V181h25.3s-4.4-16.7.3-30.8c1.2-1.2 3-3.4 5.2-5.2 4.2-3.6 8.6-7.2 11.9-11.3 7.2-9.1 7-23.5-.3-32.8-6-7.6-12.8-12-18.1-15.1-9.4-5.5-58.1-23.4-84.8 18.4-8.4 12.8-21.4 13.3-21.4 13.3l.8 15.5s15.9 1.5 28.4-13.3 12.6-11.4 12.6-11.4z"/><path id="Fill-27" class="st8" d="M217.1 188h-24.3c-1.9 0-3.4-1.6-3.4-3.5s1.5-3.5 3.4-3.5h24.3c1.9 0 3.4 1.6 3.4 3.5s-1.5 3.5-3.4 3.5"/><path id="Stroke-29" class="st7" d="M217.1 188h-24.3c-1.9 0-3.4-1.6-3.4-3.5s1.5-3.5 3.4-3.5h24.3c1.9 0 3.4 1.6 3.4 3.5s-1.5 3.5-3.4 3.5z"/><path id="Fill-31" class="st8" d="M258.1 188h-24.3c-1.9 0-3.4-1.6-3.4-3.5s1.5-3.5 3.4-3.5h24.3c1.9 0 3.4 1.6 3.4 3.5s-1.5 3.5-3.4 3.5"/><path id="Stroke-33" class="st7" d="M258.1 188h-24.3c-1.9 0-3.4-1.6-3.4-3.5s1.5-3.5 3.4-3.5h24.3c1.9 0 3.4 1.6 3.4 3.5s-1.5 3.5-3.4 3.5z"/><g id="Group-38"><path id="Fill-35" class="st2" d="M192.6 180c0-7 5.7-12.7 12.8-12.7 7 0 12.8 5.7 12.8 12.7"/><path id="Stroke-37" class="st7" d="M192.6 180c0-7 5.7-12.7 12.8-12.7 7 0 12.8 5.7 12.8 12.7"/></g><g id="Group-42"><path id="Fill-39" class="st2" d="M232.8 180c0-7 5.7-12.7 12.8-12.7s12.8 5.7 12.8 12.7"/><path id="Stroke-41" class="st7" d="M232.8 180c0-7 5.7-12.7 12.8-12.7s12.8 5.7 12.8 12.7"/></g><path id="Stroke-45" class="st7" d="M224.5 99v28"/><path id="Stroke-47" class="st7" d="M238.5 87v5.5c0 3-2.4 5.5-5.4 5.5h-16.2c-3 0-5.4-2.5-5.4-5.5V87"/><path id="Fill-49" class="st4" d="M219.5 91.5c0 .8-.7 1.5-1.5 1.5s-1.5-.7-1.5-1.5.7-1.5 1.5-1.5 1.5.7 1.5 1.5"/><path id="Fill-51" class="st5" d="M226.5 91.5c0 .8-.7 1.5-1.5 1.5s-1.5-.7-1.5-1.5.7-1.5 1.5-1.5 1.5.7 1.5 1.5"/><path id="Fill-53" class="st5" d="M233.5 91.5c0 .8-.7 1.5-1.5 1.5s-1.5-.7-1.5-1.5.7-1.5 1.5-1.5 1.5.7 1.5 1.5"/><g id="Group-58"><path id="Fill-55" class="st2" d="M259.5 125.6s1 10-1 25.4"/><path id="Stroke-57" class="st7" d="M259.5 125.6s1 10-1 25.4"/></g><path id="Fill-59" class="st8" d="M259.1 133h-69.3c-1.3 0-2.3-1.1-2.3-2.5s1.1-2.5 2.3-2.5h69.3c1.3 0 2.3 1.1 2.3 2.5s-1 2.5-2.3 2.5"/><path id="Stroke-61" class="st7" d="M259.1 133h-69.3c-1.3 0-2.3-1.1-2.3-2.5s1.1-2.5 2.3-2.5h69.3c1.3 0 2.3 1.1 2.3 2.5s-1 2.5-2.3 2.5z"/><path id="Stroke-63" class="st9" d="M256.1 4l-.6 17"/><path id="Fill-65" class="st2" d="M258.4 2.5c-.3 1.1-1.3 1.7-2.4 1.5-1.1-.3-1.7-1.3-1.5-2.4.3-1.1 1.3-1.7 2.4-1.5 1.1.2 1.8 1.3 1.5 2.4"/><path id="Fill-67" class="st2" d="M224.3 76.9c-18 0-32.6-14.6-32.5-32.7 0-4 .7-7.8 2-11.3 4.6-12.4 16.3-13.1 30.3-13.1 12.1 0 22.9-1.5 28.5 8.2 2.8 4.8 4.3 10.4 4.3 16.3 0 18.1-14.6 32.7-32.6 32.6m46.2-27.2l-.7-17.8c-.1-1.6-1.4-2.8-3-2.8l-1.9.4c-5.4-14.9-18.8-26.3-35.6-28.2-23.6-2.7-44.8 14.3-47.5 37.9s14.3 44.9 37.9 47.6c22.2 2.5 42.4-12.4 46.9-34h1.2c1.5-.1 2.7-1.5 2.7-3.1"/><g id="Group-72"><path id="Fill-69" class="st2" d="M182.1 56.6h-1c-1.6.1-3-1.2-3.1-2.8l-.7-18.1c-.1-1.6 1.2-3 2.8-3.1l2-.1"/><path id="Stroke-71" class="st7" d="M182.1 56.6h-1c-1.6.1-3-1.2-3.1-2.8l-.7-18.1c-.1-1.6 1.2-3 2.8-3.1l2-.1"/></g><path id="Stroke-73" class="st7" d="M181.5 36c3.9-20 21.4-35 42.5-35 19.8 0 36.4 13.3 41.5 31.5"/><path id="Stroke-75" class="st7" d="M264.5 29.1l2.2-.1c1.6-.1 2.9 1.2 3 2.8l.7 18c.1 1.6-.9 2.9-2.8 3.1l-1.4.3C262.2 73 244.8 88 224 88c-21.2 0-38.9-15.5-42.5-35.9"/><g id="Group-80"><path id="Fill-77" class="st2" d="M267.5 40.1c.1 1.5.2 3 .2 4.6 0 1.5-.1 2.9-.2 4.4"/><path id="Stroke-79" class="st7" d="M266.5 40.1c.1 1.5.2 3 .2 4.6 0 1.5-.1 2.9-.2 4.4"/></g><path id="Fill-81" class="st0" d="M256.5 44.5c0 18-14.6 32.5-32.5 32.5s-32.5-14.6-32.5-32.6c0-4 .7-7.8 2-11.3 4.6-12.4 16.2-13.1 30.2-13.1 12 0 22.8-1.5 28.4 8.2 2.8 4.9 4.4 10.4 4.4 16.3"/><path id="Stroke-83" class="st7" d="M256.5 44.5c0 18-14.6 32.5-32.5 32.5s-32.5-14.6-32.5-32.6c0-4 .7-7.8 2-11.3 4.6-12.4 16.2-13.1 30.2-13.1 12 0 22.8-1.5 28.4 8.2 2.8 4.9 4.4 10.4 4.4 16.3z"/><path id="Stroke-85" class="st7" d="M181.6 48c-.1-1.1-.1-2.3-.1-3.4V43"/><path id="Stroke-87" class="st9" d="M200.5 59c-3.5-5.3-4.9-12.2-3.4-19.1.1-.6.3-1.3.5-1.9"/><path id="Stroke-89" class="st6" d="M249.4 32c3 5.6 3.9 12.1 2.3 18.7-1 3.9-2.8 7.4-5.2 10.3"/><path id="Stroke-91" class="st7" d="M221.5 9.1c5.1-.3 10.4 0 15.7 1.2 2.9.7 5.7 1.5 8.3 2.6"/><path id="Stroke-93" class="st7" d="M211.5 10.8c1.3-.3 2.7-.6 4-.8"/><path id="Stroke-95" class="st7" d="M198.5 17c1.6-1.1 3.3-2.1 5-3"/></g></g><g id="Page-1"><g id="Group-11"><path id="Fill-8" class="st5" d="M235.6 114.2c-.5 0-.9-.2-1.1-.7-.2-.4-.2-.9 0-1.3l6.2-10.9c.2-.4.7-.7 1.2-.7s.9.3 1.2.7l6.2 10.9c.2.4.2.9 0 1.3s-.7.7-1.1.7h-12.6z"/><path id="Fill-10" class="st3" d="M236.1 111.7l5-9c.3-.5 1-.5 1.3 0l5 9c.3.5-.1 1.1-.7 1.1h-10c-.5.1-.9-.5-.6-1.1"/><path class="st10" d="M145.5 186.8c-.8.4-1.7.5-2.5.4-.1-.6.3-1.3 1-1.5"/></g><path class="st11" d="M241.8 105l-3.6 7.9h7.2z"/><path class="st2" d="M241.7 105l-1.1 7.9h2.2z"/><path class="st5" d="M242.2 106.3l.8-1.4c.2-.3 0-.6-.4-.6H241c-.3 0-.5.3-.4.6l.8 1.4c.2.3.6.3.8 0z"/></g></g></g></g></g><path id="Stroke-3" class="st12" d="M154.6 125.4c0 4.4-1.6 8-6 8s-8-3.6-8-8 3.6-8 8-8c4.5 0 6 3.6 6 8z"/><path class="st7" d="M150.4 128.5c-.1.3-.1.5-.2.7-.1.4-.3.8-.5 1.2m0-10.2c.3.5.5 1.1.6 1.8.2.6.3 1.3.3 2"/><path class="st13" d="M147.5 132.7c.2 16.6.7 34 1.7 50.9m.3-151.3c0 3.4-2.1 40-2.1 84.9"/><path class="st6" d="M151 184h-4.8m9 0h.8"/><path class="st4" d="M145.7 34.8c0-.8-.6-1.5-1.4-1.6-3-.2-10.2-.4-16.5 1.1-7.9 1.9-15.4 1.2-23.2.8-.8 0-1.5.5-1.6 1.3-.5 4.3-1.7 17.2-.4 26.6.1.8.7 1.3 1.5 1.3 3.4 0 12.9 1.7 22-.7 8.1-2.1 14-1.7 16.7-1.3.9.1 1.7-.5 1.7-1.4l1.2-26.1z"/><g id="flag"><path id="Fill-7" class="st2" d="M126.4 49.6l1.5 4.4-4.1-2.3-3.8 2.7 1.1-4.5-4.1-3 4.6-.2 1.8-4.5 2.2 4.3 4.6-.2-3.8 3.3zm2.2-8.4l-10.5.5s-2.4 5.2-1.6 8.3c1.3 5.1 7.6 7.3 7.6 7.3 5.1-3.4 6.3-5.4 6.9-8s-2.4-8.1-2.4-8.1z"/></g></svg>